<?xml version="1.0" encoding="UTF-8"?><svg id="Layer_2" xmlns="http://www.w3.org/2000/svg" width="197.98" height="190.18" viewBox="0 0 197.98 190.18"><g id="Layer_1-2"><polygon points="121.29 150.79 162.55 161.6 139.96 126.23 179.58 101.67 139.3 91.84 149.13 48.29 115.72 64.66 98.69 21.11 82.65 68.92 46.62 60.73 59.07 94.46 20.42 106.91 62.01 124.92 42.36 169.13 84.28 149.04 102.62 177.32 121.29 150.79" style="fill:none; stroke:#f31823; stroke-miterlimit:10; stroke-width:14.41px;"/><polygon points="121.29 150.79 162.55 161.6 139.96 126.23 179.58 101.67 139.3 91.84 149.13 48.29 115.72 64.66 98.69 21.11 82.65 68.92 46.62 60.73 59.07 94.46 20.42 106.91 62.01 124.92 42.36 169.13 84.28 149.04 102.62 177.32 121.29 150.79" style="fill:#ff8c19; stroke-width:0px;"/><polygon points="89.84 84.17 100 52.67 110.57 78.69 134.15 71.59 127.24 100.64 154.06 109.58 128.05 125.02 140.24 149.01 113.42 139.66 102.85 161.06 86.99 141.28 58.54 152.66 73.99 122.99 47.16 110.8 74.39 103.07 60.98 77.06 89.84 84.17" style="fill:#ffff20; stroke-width:0px;"/></g></svg>