<?xml version="1.0" encoding="UTF-8"?><svg id="Layer_2" xmlns="http://www.w3.org/2000/svg" width="277.17" height="269.32" viewBox="0 0 277.17 269.32"><g id="Layer_1-2"><path d="m138.59,33.65c-7.6,0-15,.85-22.13,2.44l-20.49-31.09-48.41,27.96,16.7,33.3c-9.98,10.83-17.62,23.85-22.11,38.25l-37.15,2.19v55.91l37.15,2.19c4.5,14.4,12.14,27.42,22.11,38.25l-16.7,33.3,48.41,27.97,20.49-31.09c7.12,1.59,14.53,2.44,22.13,2.44s15-.85,22.13-2.44l20.49,31.09,48.41-27.96-16.7-33.3c9.98-10.83,17.62-23.85,22.11-38.25l37.15-2.19v-55.91l-37.15-2.19c-4.5-14.4-12.14-27.42-22.11-38.25l16.7-33.3-48.41-27.97-20.49,31.09c-7.12-1.59-14.53-2.44-22.13-2.44Z" style="fill:#939393; stroke:#000; stroke-linejoin:round; stroke-width:10px;"/><circle cx="138.59" cy="134.66" r="66.06" style="fill:#b5b5b5; stroke:#000; stroke-miterlimit:10; stroke-width:10px;"/><circle cx="138.59" cy="134.66" r="27.95" style="stroke-width:0px;"/></g></svg>