<?xml version="1.0" encoding="UTF-8"?><svg id="Layer_2" xmlns="http://www.w3.org/2000/svg" xmlns:xlink="http://www.w3.org/1999/xlink" viewBox="0 0 152.96 68.56"><defs><style>.cls-1{clip-path:url(#clippath);}.cls-2{fill:none;}.cls-2,.cls-3,.cls-4{stroke-width:0px;}.cls-3{fill:url(#StarsYellow);}.cls-4{fill:#f4e064;}</style><clipPath id="clippath"><path class="cls-2" d="m32.45,68.55C13.6,69.07,0,52.78,0,33.85,0,14.92,13.6-.41,32.45,0l120.5,12.46v43.63s-120.51,12.46-120.51,12.46Z"/></clipPath><pattern id="StarsYellow" x="0" y="0" width="75" height="75" patternTransform="translate(-10715.89 23009.05) rotate(45) scale(2.97)" patternUnits="userSpaceOnUse" viewBox="0 0 75 75"><rect class="cls-2" width="75" height="75"/><polygon class="cls-4" points="67.83 72.22 65.92 73.84 63.57 73.18 64.26 75 68.35 75 67.9 74.71 67.83 72.22"/><polygon class="cls-4" points="49.08 72.22 47.17 73.84 44.82 73.18 45.51 75 49.6 75 49.15 74.71 49.08 72.22"/><polygon class="cls-4" points="30.33 72.22 28.42 73.84 26.07 73.18 26.76 75 30.85 75 30.4 74.71 30.33 72.22"/><polygon class="cls-4" points="11.58 72.22 9.67 73.84 7.32 73.18 8.01 75 12.1 75 11.65 74.71 11.58 72.22"/><polygon class="cls-4" points="72.59 55.96 72.51 53.47 70.61 55.09 68.26 54.43 69.14 56.75 67.76 58.84 70.21 58.65 71.71 60.59 72.34 58.17 74.65 57.28 72.59 55.96"/><polygon class="cls-4" points="73.92 67.74 72.38 69.85 75 69.83 75 65.91 73.02 65.23 73.92 67.74"/><polygon class="cls-4" points="67.66 65.39 66.28 63.58 65.73 65.79 63.63 66.55 65.51 67.8 65.6 70.09 67.32 68.65 69.46 69.3 68.64 67.16 69.88 65.28 67.66 65.39"/><polygon class="cls-4" points="53.84 55.96 53.76 53.47 51.86 55.09 49.51 54.43 50.39 56.75 49.01 58.84 51.46 58.65 52.96 60.59 53.59 58.17 55.9 57.28 53.84 55.96"/><polygon class="cls-4" points="58.88 64.53 56.79 66.1 54.27 65.23 55.17 67.74 53.63 69.85 56.27 69.83 57.85 72 58.58 69.48 61.08 68.72 58.9 67.17 58.88 64.53"/><polygon class="cls-4" points="63.88 58.3 64.08 55.1 61.45 56.95 58.52 55.84 59.38 58.9 57.37 61.42 60.52 61.46 62.22 64.13 63.3 61.09 66.37 60.22 63.88 58.3"/><polygon class="cls-4" points="48.91 65.39 47.53 63.58 46.98 65.79 44.88 66.55 46.76 67.8 46.85 70.09 48.57 68.65 50.71 69.3 49.89 67.16 51.13 65.28 48.91 65.39"/><polygon class="cls-4" points="35.09 55.96 35.01 53.47 33.11 55.09 30.76 54.43 31.64 56.75 30.26 58.84 32.71 58.65 34.21 60.59 34.84 58.17 37.15 57.28 35.09 55.96"/><polygon class="cls-4" points="40.12 64.53 38.04 66.1 35.52 65.23 36.42 67.74 34.88 69.85 37.52 69.83 39.1 72 39.83 69.48 42.33 68.72 40.15 67.17 40.12 64.53"/><polygon class="cls-4" points="45.13 58.3 45.33 55.1 42.7 56.95 39.77 55.84 40.63 58.9 38.62 61.42 41.78 61.46 43.47 64.13 44.55 61.09 47.62 60.22 45.13 58.3"/><polygon class="cls-4" points="30.16 65.39 28.78 63.58 28.23 65.79 26.13 66.55 28.01 67.8 28.1 70.09 29.82 68.65 31.96 69.3 31.14 67.16 32.39 65.28 30.16 65.39"/><polygon class="cls-4" points="16.34 55.96 16.27 53.47 14.36 55.09 12.01 54.43 12.89 56.75 11.51 58.84 13.96 58.65 15.46 60.59 16.09 58.17 18.4 57.28 16.34 55.96"/><polygon class="cls-4" points="21.37 64.53 19.29 66.1 16.77 65.23 17.67 67.74 16.13 69.85 18.77 69.83 20.35 72 21.08 69.48 23.59 68.72 21.4 67.17 21.37 64.53"/><polygon class="cls-4" points="26.38 58.3 26.58 55.1 23.95 56.95 21.02 55.84 21.88 58.9 19.87 61.42 23.02 61.46 24.72 64.13 25.8 61.09 28.87 60.22 26.38 58.3"/><polygon class="cls-4" points="11.41 65.39 10.03 63.58 9.48 65.79 7.38 66.55 9.26 67.8 9.35 70.09 11.07 68.65 13.21 69.3 12.39 67.16 13.64 65.28 11.41 65.39"/><polygon class="cls-4" points="2.62 64.53 .54 66.1 0 65.91 0 69.83 .02 69.83 1.6 72 2.33 69.48 4.84 68.72 2.65 67.17 2.62 64.53"/><polygon class="cls-4" points="7.63 58.3 7.83 55.1 5.2 56.95 2.27 55.84 3.13 58.9 1.12 61.42 4.27 61.46 5.97 64.13 7.05 61.09 10.12 60.22 7.63 58.3"/><polygon class="cls-4" points="73.83 38 72.45 40.09 74.9 39.9 75 40.03 75 36.25 72.94 35.68 73.83 38"/><polygon class="cls-4" points="72.35 46.64 70.97 44.83 70.41 47.04 68.32 47.8 70.2 49.05 70.28 51.34 72 49.9 74.15 50.55 73.33 48.41 74.57 46.53 72.35 46.64"/><polygon class="cls-4" points="57.65 41.84 58.28 39.42 60.59 38.53 58.53 37.21 58.45 34.72 56.55 36.34 54.19 35.69 55.08 38 53.7 40.09 56.15 39.9 57.65 41.84"/><polygon class="cls-4" points="60.96 51.08 62.53 53.25 63.27 50.73 65.77 49.97 63.58 48.42 63.56 45.78 61.48 47.35 58.96 46.48 59.86 48.99 58.32 51.1 60.96 51.08"/><polygon class="cls-4" points="67.99 42.34 71.05 41.47 68.57 39.55 68.77 36.35 66.14 38.2 63.2 37.09 64.07 40.15 62.05 42.67 65.21 42.71 66.91 45.38 67.99 42.34"/><polygon class="cls-4" points="53.6 46.64 52.22 44.83 51.66 47.04 49.57 47.8 51.45 49.05 51.53 51.34 53.25 49.9 55.4 50.55 54.58 48.41 55.82 46.53 53.6 46.64"/><polygon class="cls-4" points="38.9 41.84 39.53 39.42 41.84 38.53 39.78 37.21 39.7 34.72 37.8 36.34 35.44 35.69 36.33 38 34.95 40.09 37.4 39.9 38.9 41.84"/><polygon class="cls-4" points="42.21 51.08 43.78 53.25 44.52 50.73 47.02 49.97 44.83 48.42 44.81 45.78 42.73 47.35 40.21 46.48 41.11 48.99 39.57 51.1 42.21 51.08"/><polygon class="cls-4" points="49.24 42.34 52.3 41.47 49.82 39.55 50.01 36.35 47.39 38.2 44.45 37.09 45.32 40.15 43.3 42.67 46.46 42.71 48.16 45.38 49.24 42.34"/><polygon class="cls-4" points="34.85 46.64 33.47 44.83 32.91 47.04 30.82 47.8 32.7 49.05 32.78 51.34 34.5 49.9 36.65 50.55 35.83 48.41 37.07 46.53 34.85 46.64"/><polygon class="cls-4" points="20.15 41.84 20.78 39.42 23.09 38.53 21.03 37.21 20.95 34.72 19.05 36.34 16.69 35.69 17.58 38 16.2 40.09 18.65 39.9 20.15 41.84"/><polygon class="cls-4" points="23.46 51.08 25.03 53.25 25.77 50.73 28.27 49.97 26.08 48.42 26.06 45.78 23.98 47.35 21.46 46.48 22.36 48.99 20.82 51.1 23.46 51.08"/><polygon class="cls-4" points="30.49 42.34 33.55 41.47 31.07 39.55 31.27 36.35 28.64 38.2 25.7 37.09 26.57 40.15 24.55 42.67 27.71 42.71 29.41 45.38 30.49 42.34"/><polygon class="cls-4" points="16.1 46.64 14.72 44.83 14.16 47.04 12.07 47.8 13.95 49.05 14.03 51.34 15.75 49.9 17.9 50.55 17.08 48.41 18.32 46.53 16.1 46.64"/><polygon class="cls-4" points="2.28 37.21 2.2 34.72 .3 36.34 0 36.25 0 40.03 1.4 41.84 2.03 39.42 4.34 38.53 2.28 37.21"/><polygon class="cls-4" points="4.71 51.08 6.28 53.25 7.02 50.73 9.52 49.97 7.33 48.42 7.31 45.78 5.23 47.35 2.71 46.48 3.61 48.99 2.07 51.1 4.71 51.08"/><polygon class="cls-4" points="11.74 42.34 14.8 41.47 12.32 39.55 12.52 36.35 9.89 38.2 6.95 37.09 7.82 40.15 5.8 42.67 8.96 42.71 10.66 45.38 11.74 42.34"/><polygon class="cls-4" points="74.89 30.3 74.97 32.59 75 32.56 75 28.32 73.01 29.05 74.89 30.3"/><polygon class="cls-4" points="60.84 21.15 62.34 23.09 62.96 20.67 65.27 19.78 63.21 18.46 63.14 15.97 61.24 17.59 58.88 16.93 59.77 19.25 58.38 21.34 60.84 21.15"/><polygon class="cls-4" points="65.65 32.33 67.22 34.5 67.95 31.98 70.46 31.22 68.27 29.67 68.25 27.03 66.16 28.6 63.64 27.73 64.54 30.24 63.01 32.35 65.65 32.33"/><polygon class="cls-4" points="69.9 23.96 71.59 26.63 72.68 23.59 75 22.93 75 22.15 73.25 20.8 73.45 17.6 70.83 19.45 67.89 18.34 68.75 21.4 66.74 23.92 69.9 23.96"/><polygon class="cls-4" points="56.91 26.08 56.35 28.29 54.26 29.05 56.14 30.3 56.22 32.59 57.94 31.15 60.09 31.8 59.27 29.66 60.51 27.78 58.28 27.89 56.91 26.08"/><polygon class="cls-4" points="42.09 21.15 43.59 23.09 44.21 20.67 46.52 19.78 44.46 18.46 44.39 15.97 42.49 17.59 40.13 16.93 41.02 19.25 39.63 21.34 42.09 21.15"/><polygon class="cls-4" points="44.89 27.73 45.79 30.24 44.26 32.35 46.9 32.33 48.47 34.5 49.2 31.98 51.71 31.22 49.52 29.67 49.5 27.03 47.41 28.6 44.89 27.73"/><polygon class="cls-4" points="51.15 23.96 52.84 26.63 53.93 23.59 56.99 22.72 54.5 20.8 54.7 17.6 52.08 19.45 49.14 18.34 50 21.4 47.99 23.92 51.15 23.96"/><polygon class="cls-4" points="38.16 26.08 37.6 28.29 35.51 29.05 37.39 30.3 37.47 32.59 39.19 31.15 41.34 31.8 40.52 29.66 41.76 27.78 39.53 27.89 38.16 26.08"/><polygon class="cls-4" points="23.34 21.15 24.84 23.09 25.46 20.67 27.77 19.78 25.71 18.46 25.64 15.97 23.74 17.59 21.38 16.93 22.27 19.25 20.88 21.34 23.34 21.15"/><polygon class="cls-4" points="26.14 27.73 27.04 30.24 25.51 32.35 28.15 32.33 29.72 34.5 30.45 31.98 32.96 31.22 30.77 29.67 30.75 27.03 28.66 28.6 26.14 27.73"/><polygon class="cls-4" points="32.4 23.96 34.09 26.63 35.18 23.59 38.24 22.72 35.75 20.8 35.95 17.6 33.33 19.45 30.39 18.34 31.25 21.4 29.24 23.92 32.4 23.96"/><polygon class="cls-4" points="19.41 26.08 18.85 28.29 16.76 29.05 18.64 30.3 18.72 32.59 20.44 31.15 22.59 31.8 21.77 29.66 23.01 27.78 20.78 27.89 19.41 26.08"/><polygon class="cls-4" points="4.59 21.15 6.09 23.09 6.71 20.67 9.02 19.78 6.96 18.46 6.89 15.97 4.99 17.59 2.63 16.93 3.52 19.25 2.13 21.34 4.59 21.15"/><polygon class="cls-4" points="7.39 27.73 8.29 30.24 6.76 32.35 9.4 32.33 10.97 34.5 11.7 31.98 14.21 31.22 12.02 29.67 12 27.03 9.91 28.6 7.39 27.73"/><polygon class="cls-4" points="13.65 23.96 15.34 26.63 16.43 23.59 19.49 22.72 17 20.8 17.2 17.6 14.58 19.45 11.64 18.34 12.5 21.4 10.49 23.92 13.65 23.96"/><polygon class="cls-4" points="3.84 31.8 3.02 29.66 4.26 27.78 2.03 27.89 .66 26.08 .1 28.29 0 28.32 0 32.56 1.69 31.15 3.84 31.8"/><polygon class="cls-4" points="0 22.15 0 22.93 .74 22.72 0 22.15"/><polygon class="cls-4" points="65.52 2.4 67.02 4.34 67.65 1.92 69.96 1.03 68.35 0 64.26 0 64.46 .5 63.07 2.59 65.52 2.4"/><polygon class="cls-4" points="72.94 8.28 70.85 9.85 68.33 8.98 69.23 11.49 67.69 13.6 70.34 13.58 71.91 15.75 72.64 13.23 75 12.51 75 12.36 72.96 10.92 72.94 8.28"/><polygon class="cls-4" points="61.04 9.54 58.94 10.3 60.83 11.55 60.91 13.84 62.63 12.4 64.77 13.05 63.95 10.91 65.2 9.03 62.97 9.14 61.59 7.33 61.04 9.54"/><polygon class="cls-4" points="46.77 2.4 48.27 4.34 48.9 1.92 51.21 1.03 49.6 0 45.51 0 45.71 .5 44.32 2.59 46.77 2.4"/><polygon class="cls-4" points="50.48 11.49 48.94 13.6 51.59 13.58 53.16 15.75 53.89 13.23 56.4 12.47 54.21 10.92 54.19 8.28 52.1 9.85 49.58 8.98 50.48 11.49"/><polygon class="cls-4" points="42.29 9.54 40.19 10.3 42.08 11.55 42.16 13.84 43.88 12.4 46.02 13.05 45.2 10.91 46.45 9.03 44.22 9.14 42.84 7.33 42.29 9.54"/><polygon class="cls-4" points="28.02 2.4 29.52 4.34 30.15 1.92 32.46 1.03 30.85 0 26.76 0 26.96 .5 25.57 2.59 28.02 2.4"/><polygon class="cls-4" points="31.73 11.49 30.19 13.6 32.84 13.58 34.41 15.75 35.14 13.23 37.65 12.47 35.46 10.92 35.44 8.28 33.35 9.85 30.83 8.98 31.73 11.49"/><polygon class="cls-4" points="23.54 9.54 21.44 10.3 23.33 11.55 23.41 13.84 25.13 12.4 27.27 13.05 26.45 10.91 27.7 9.03 25.47 9.14 24.1 7.33 23.54 9.54"/><polygon class="cls-4" points="9.27 2.4 10.77 4.34 11.4 1.92 13.71 1.03 12.1 0 8.01 0 8.21 .5 6.82 2.59 9.27 2.4"/><polygon class="cls-4" points="12.98 11.49 11.44 13.6 14.09 13.58 15.66 15.75 16.39 13.23 18.9 12.47 16.71 10.92 16.69 8.28 14.6 9.85 12.08 8.98 12.98 11.49"/><polygon class="cls-4" points="4.79 9.54 2.69 10.3 4.58 11.55 4.66 13.84 6.38 12.4 8.52 13.05 7.7 10.91 8.95 9.03 6.72 9.14 5.35 7.33 4.79 9.54"/><polygon class="cls-4" points="55.9 5.22 57.61 7.88 58.68 4.83 61.74 3.95 59.24 2.04 59.36 0 57.79 0 56.81 .7 54.92 0 53.98 0 54.75 2.67 52.75 5.2 55.9 5.22"/><polygon class="cls-4" points="37.15 5.22 38.86 7.88 39.93 4.83 42.99 3.95 40.49 2.04 40.61 0 39.04 0 38.06 .7 36.17 0 35.23 0 36 2.67 34 5.2 37.15 5.22"/><polygon class="cls-4" points="18.4 5.22 20.11 7.88 21.18 4.83 24.24 3.95 21.74 2.04 21.86 0 20.29 0 19.31 .7 17.42 0 16.48 0 17.25 2.67 15.25 5.2 18.4 5.22"/><polygon class="cls-4" points="59.36 75 59.42 73.84 57.79 75 59.36 75"/><polygon class="cls-4" points="40.61 75 40.67 73.84 39.04 75 40.61 75"/><polygon class="cls-4" points="21.86 75 21.92 73.84 20.29 75 21.86 75"/><polygon class="cls-4" points="2.99 75 3.06 73.84 1.42 75 2.99 75"/><polygon class="cls-4" points="2.32 4.83 5.37 3.95 2.88 2.04 2.99 0 1.42 0 .44 .7 0 .54 0 5.94 1.25 7.88 2.32 4.83"/><polygon class="cls-4" points="73.55 0 72.61 0 73.38 2.67 71.38 5.2 74.54 5.22 75 5.94 75 .54 73.55 0"/></pattern></defs><g id="Layer_1-2"><g class="cls-1"><polygon class="cls-3" points="152.96 78.94 152.96 -2.94 -6.71 -6.27 -6.71 78.94 152.96 78.94"/></g></g></svg>