<?xml version="1.0" encoding="UTF-8"?><svg id="Layer_2" xmlns="http://www.w3.org/2000/svg" width="152.96" height="68.56" xmlns:xlink="http://www.w3.org/1999/xlink" viewBox="0 0 152.96 68.56"><defs><clipPath id="clippath"><path d="m32.45,68.55C13.6,69.07,0,52.78,0,33.85,0,14.92,13.6-.41,32.45,0l120.5,12.46v43.63s-120.51,12.46-120.51,12.46Z" style="fill:none; stroke-width:0px;"/></clipPath></defs><g id="Layer_1-2"><g style="opacity:.75;"><g style="clip-path:url(#clippath);"><g style="opacity:.8;"><rect x="36.28" y="21.95" width="25.28" height="25.28" transform="translate(-10.13 44.72) rotate(-45)" style="stroke-width:0px;"/></g><g style="opacity:.8;"><rect x="72.03" y="21.95" width="25.28" height="25.28" transform="translate(.34 70) rotate(-45)" style="stroke-width:0px;"/></g><g style="opacity:.8;"><rect x="36.28" y="-13.8" width="25.28" height="25.28" transform="translate(15.15 34.25) rotate(-45)" style="stroke-width:0px;"/></g><g style="opacity:.8;"><rect x="72.03" y="-13.8" width="25.28" height="25.28" transform="translate(25.62 59.53) rotate(-45)" style="stroke-width:0px;"/></g><g style="opacity:.8;"><rect x="36.28" y="57.7" width="25.28" height="25.28" transform="translate(-35.41 55.19) rotate(-45)" style="stroke-width:0px;"/></g><g style="opacity:.8;"><rect x="72.03" y="57.7" width="25.28" height="25.28" transform="translate(-24.94 80.47) rotate(-45)" style="stroke-width:0px;"/></g><g style="opacity:.8;"><rect x="143.52" y="21.95" width="25.28" height="25.28" transform="translate(21.28 120.55) rotate(-45)" style="stroke-width:0px;"/></g><g style="opacity:.8;"><rect x="107.77" y="21.95" width="25.28" height="25.28" transform="translate(10.81 95.27) rotate(-45)" style="stroke-width:0px;"/></g><g style="opacity:.8;"><rect x="107.77" y="-13.8" width="25.28" height="25.28" transform="translate(36.09 84.8) rotate(-45)" style="stroke-width:0px;"/></g><g style="opacity:.8;"><rect x="107.77" y="57.7" width="25.28" height="25.28" transform="translate(-14.47 105.74) rotate(-45)" style="stroke-width:0px;"/></g><g style="opacity:.8;"><rect x=".53" y="21.95" width="25.28" height="25.28" transform="translate(-20.6 19.44) rotate(-45)" style="stroke-width:0px;"/></g><g style="opacity:.8;"><rect x=".53" y="-13.8" width="25.28" height="25.28" transform="translate(4.68 8.97) rotate(-45)" style="stroke-width:0px;"/></g><g style="opacity:.8;"><rect x=".53" y="57.7" width="25.28" height="25.28" transform="translate(-45.88 29.91) rotate(-45)" style="stroke-width:0px;"/></g></g></g></g></svg>