<?xml version="1.0" encoding="UTF-8"?><svg id="Layer_2" xmlns="http://www.w3.org/2000/svg" xmlns:xlink="http://www.w3.org/1999/xlink" viewBox="0 0 152.96 68.56"><defs><style>.cls-1{fill:url(#CheckerSmall);opacity:.8;}.cls-1,.cls-2,.cls-3{stroke-width:0px;}.cls-4{clip-path:url(#clippath);}.cls-2{fill:none;}.cls-5{opacity:.75;}</style><clipPath id="clippath"><path class="cls-2" d="m32.45,68.55C13.6,69.07,0,52.78,0,33.85,0,14.92,13.6-.41,32.45,0l120.5,12.46v43.63s-120.51,12.46-120.51,12.46Z"/></clipPath><pattern id="CheckerSmall" x="0" y="0" width="75" height="75" patternTransform="translate(-166.38 123.21) rotate(44.65) scale(6.73) skewX(-.69)" patternUnits="userSpaceOnUse" viewBox="0 0 75 75"><rect class="cls-2" width="75" height="75"/><rect class="cls-3" x="67.5" width="3.75" height="3.75"/><rect class="cls-3" x="71.25" y="3.75" width="3.75" height="3.75"/><rect class="cls-3" x="67.5" y="7.5" width="3.75" height="3.75"/><rect class="cls-3" x="71.25" y="11.25" width="3.75" height="3.75"/><rect class="cls-3" x="67.5" y="15" width="3.75" height="3.75"/><rect class="cls-3" x="71.25" y="18.75" width="3.75" height="3.75"/><rect class="cls-3" x="67.5" y="22.5" width="3.75" height="3.75"/><rect class="cls-3" x="71.25" y="26.25" width="3.75" height="3.75"/><rect class="cls-3" x="67.5" y="30" width="3.75" height="3.75"/><rect class="cls-3" x="71.25" y="33.75" width="3.75" height="3.75"/><rect class="cls-3" x="67.5" y="37.5" width="3.75" height="3.75"/><rect class="cls-3" x="71.25" y="41.25" width="3.75" height="3.75"/><rect class="cls-3" x="67.5" y="45" width="3.75" height="3.75"/><rect class="cls-3" x="71.25" y="48.75" width="3.75" height="3.75"/><rect class="cls-3" x="67.5" y="52.5" width="3.75" height="3.75"/><rect class="cls-3" x="71.25" y="56.25" width="3.75" height="3.75"/><rect class="cls-3" x="67.5" y="60" width="3.75" height="3.75"/><rect class="cls-3" x="71.25" y="63.75" width="3.75" height="3.75"/><rect class="cls-3" x="67.5" y="67.5" width="3.75" height="3.75"/><rect class="cls-3" x="71.25" y="71.25" width="3.75" height="3.75"/><rect class="cls-3" x="60" width="3.75" height="3.75"/><rect class="cls-3" x="63.75" y="3.75" width="3.75" height="3.75"/><rect class="cls-3" x="60" y="7.5" width="3.75" height="3.75"/><rect class="cls-3" x="63.75" y="11.25" width="3.75" height="3.75"/><rect class="cls-3" x="60" y="15" width="3.75" height="3.75"/><rect class="cls-3" x="63.75" y="18.75" width="3.75" height="3.75"/><rect class="cls-3" x="60" y="22.5" width="3.75" height="3.75"/><rect class="cls-3" x="63.75" y="26.25" width="3.75" height="3.75"/><rect class="cls-3" x="60" y="30" width="3.75" height="3.75"/><rect class="cls-3" x="63.75" y="33.75" width="3.75" height="3.75"/><rect class="cls-3" x="60" y="37.5" width="3.75" height="3.75"/><rect class="cls-3" x="63.75" y="41.25" width="3.75" height="3.75"/><rect class="cls-3" x="60" y="45" width="3.75" height="3.75"/><rect class="cls-3" x="63.75" y="48.75" width="3.75" height="3.75"/><rect class="cls-3" x="60" y="52.5" width="3.75" height="3.75"/><rect class="cls-3" x="63.75" y="56.25" width="3.75" height="3.75"/><rect class="cls-3" x="60" y="60" width="3.75" height="3.75"/><rect class="cls-3" x="63.75" y="63.75" width="3.75" height="3.75"/><rect class="cls-3" x="60" y="67.5" width="3.75" height="3.75"/><rect class="cls-3" x="63.75" y="71.25" width="3.75" height="3.75"/><rect class="cls-3" x="52.5" width="3.75" height="3.75"/><rect class="cls-3" x="56.25" y="3.75" width="3.75" height="3.75"/><rect class="cls-3" x="52.5" y="7.5" width="3.75" height="3.75"/><rect class="cls-3" x="56.25" y="11.25" width="3.75" height="3.75"/><rect class="cls-3" x="52.5" y="15" width="3.75" height="3.75"/><rect class="cls-3" x="56.25" y="18.75" width="3.75" height="3.75"/><rect class="cls-3" x="52.5" y="22.5" width="3.75" height="3.75"/><rect class="cls-3" x="56.25" y="26.25" width="3.75" height="3.75"/><rect class="cls-3" x="52.5" y="30" width="3.75" height="3.75"/><rect class="cls-3" x="56.25" y="33.75" width="3.75" height="3.75"/><rect class="cls-3" x="52.5" y="37.5" width="3.75" height="3.75"/><rect class="cls-3" x="56.25" y="41.25" width="3.75" height="3.75"/><rect class="cls-3" x="52.5" y="45" width="3.75" height="3.75"/><rect class="cls-3" x="56.25" y="48.75" width="3.75" height="3.75"/><rect class="cls-3" x="52.5" y="52.5" width="3.75" height="3.75"/><rect class="cls-3" x="56.25" y="56.25" width="3.75" height="3.75"/><rect class="cls-3" x="52.5" y="60" width="3.75" height="3.75"/><rect class="cls-3" x="56.25" y="63.75" width="3.75" height="3.75"/><rect class="cls-3" x="52.5" y="67.5" width="3.75" height="3.75"/><rect class="cls-3" x="56.25" y="71.25" width="3.75" height="3.75"/><rect class="cls-3" x="45" width="3.75" height="3.75"/><rect class="cls-3" x="48.75" y="3.75" width="3.75" height="3.75"/><rect class="cls-3" x="45" y="7.5" width="3.75" height="3.75"/><rect class="cls-3" x="48.75" y="11.25" width="3.75" height="3.75"/><rect class="cls-3" x="45" y="15" width="3.75" height="3.75"/><rect class="cls-3" x="48.75" y="18.75" width="3.75" height="3.75"/><rect class="cls-3" x="45" y="22.5" width="3.75" height="3.75"/><rect class="cls-3" x="48.75" y="26.25" width="3.75" height="3.75"/><rect class="cls-3" x="45" y="30" width="3.75" height="3.75"/><rect class="cls-3" x="48.75" y="33.75" width="3.75" height="3.75"/><rect class="cls-3" x="45" y="37.5" width="3.75" height="3.75"/><rect class="cls-3" x="48.75" y="41.25" width="3.75" height="3.75"/><rect class="cls-3" x="45" y="45" width="3.75" height="3.75"/><rect class="cls-3" x="48.75" y="48.75" width="3.75" height="3.75"/><rect class="cls-3" x="45" y="52.5" width="3.75" height="3.75"/><rect class="cls-3" x="48.75" y="56.25" width="3.75" height="3.75"/><rect class="cls-3" x="45" y="60" width="3.75" height="3.75"/><rect class="cls-3" x="48.75" y="63.75" width="3.75" height="3.75"/><rect class="cls-3" x="45" y="67.5" width="3.75" height="3.75"/><rect class="cls-3" x="48.75" y="71.25" width="3.75" height="3.75"/><rect class="cls-3" x="37.5" width="3.75" height="3.75"/><rect class="cls-3" x="41.25" y="3.75" width="3.75" height="3.75"/><rect class="cls-3" x="37.5" y="7.5" width="3.75" height="3.75"/><rect class="cls-3" x="41.25" y="11.25" width="3.75" height="3.75"/><rect class="cls-3" x="37.5" y="15" width="3.75" height="3.75"/><rect class="cls-3" x="41.25" y="18.75" width="3.75" height="3.75"/><rect class="cls-3" x="37.5" y="22.5" width="3.75" height="3.75"/><rect class="cls-3" x="41.25" y="26.25" width="3.75" height="3.75"/><rect class="cls-3" x="37.5" y="30" width="3.75" height="3.75"/><rect class="cls-3" x="41.25" y="33.75" width="3.75" height="3.75"/><rect class="cls-3" x="37.5" y="37.5" width="3.75" height="3.75"/><rect class="cls-3" x="41.25" y="41.25" width="3.75" height="3.75"/><rect class="cls-3" x="37.5" y="45" width="3.75" height="3.75"/><rect class="cls-3" x="41.25" y="48.75" width="3.75" height="3.75"/><rect class="cls-3" x="37.5" y="52.5" width="3.75" height="3.75"/><rect class="cls-3" x="41.25" y="56.25" width="3.75" height="3.75"/><rect class="cls-3" x="37.5" y="60" width="3.75" height="3.75"/><rect class="cls-3" x="41.25" y="63.75" width="3.75" height="3.75"/><rect class="cls-3" x="37.5" y="67.5" width="3.75" height="3.75"/><rect class="cls-3" x="41.25" y="71.25" width="3.75" height="3.75"/><rect class="cls-3" x="30" width="3.75" height="3.75"/><rect class="cls-3" x="33.75" y="3.75" width="3.75" height="3.75"/><rect class="cls-3" x="30" y="7.5" width="3.75" height="3.75"/><rect class="cls-3" x="33.75" y="11.25" width="3.75" height="3.75"/><rect class="cls-3" x="30" y="15" width="3.75" height="3.75"/><rect class="cls-3" x="33.75" y="18.75" width="3.75" height="3.75"/><rect class="cls-3" x="30" y="22.5" width="3.75" height="3.75"/><rect class="cls-3" x="33.75" y="26.25" width="3.75" height="3.75"/><rect class="cls-3" x="30" y="30" width="3.75" height="3.75"/><rect class="cls-3" x="33.75" y="33.75" width="3.75" height="3.75"/><rect class="cls-3" x="30" y="37.5" width="3.75" height="3.75"/><rect class="cls-3" x="33.75" y="41.25" width="3.75" height="3.75"/><rect class="cls-3" x="30" y="45" width="3.75" height="3.75"/><rect class="cls-3" x="33.75" y="48.75" width="3.75" height="3.75"/><rect class="cls-3" x="30" y="52.5" width="3.75" height="3.75"/><rect class="cls-3" x="33.75" y="56.25" width="3.75" height="3.75"/><rect class="cls-3" x="30" y="60" width="3.75" height="3.75"/><rect class="cls-3" x="33.75" y="63.75" width="3.75" height="3.75"/><rect class="cls-3" x="30" y="67.5" width="3.75" height="3.75"/><rect class="cls-3" x="33.75" y="71.25" width="3.75" height="3.75"/><rect class="cls-3" x="22.5" width="3.75" height="3.75"/><rect class="cls-3" x="26.25" y="3.75" width="3.75" height="3.75"/><rect class="cls-3" x="22.5" y="7.5" width="3.75" height="3.75"/><rect class="cls-3" x="26.25" y="11.25" width="3.75" height="3.75"/><rect class="cls-3" x="22.5" y="15" width="3.75" height="3.75"/><rect class="cls-3" x="26.25" y="18.75" width="3.75" height="3.75"/><rect class="cls-3" x="22.5" y="22.5" width="3.75" height="3.75"/><rect class="cls-3" x="26.25" y="26.25" width="3.75" height="3.75"/><rect class="cls-3" x="22.5" y="30" width="3.75" height="3.75"/><rect class="cls-3" x="26.25" y="33.75" width="3.75" height="3.75"/><rect class="cls-3" x="22.5" y="37.5" width="3.75" height="3.75"/><rect class="cls-3" x="26.25" y="41.25" width="3.75" height="3.75"/><rect class="cls-3" x="22.5" y="45" width="3.75" height="3.75"/><rect class="cls-3" x="26.25" y="48.75" width="3.75" height="3.75"/><rect class="cls-3" x="22.5" y="52.5" width="3.75" height="3.75"/><rect class="cls-3" x="26.25" y="56.25" width="3.75" height="3.75"/><rect class="cls-3" x="22.5" y="60" width="3.75" height="3.75"/><rect class="cls-3" x="26.25" y="63.75" width="3.75" height="3.75"/><rect class="cls-3" x="22.5" y="67.5" width="3.75" height="3.75"/><rect class="cls-3" x="26.25" y="71.25" width="3.75" height="3.75"/><rect class="cls-3" x="15" width="3.75" height="3.75"/><rect class="cls-3" x="18.75" y="3.75" width="3.75" height="3.75"/><rect class="cls-3" x="15" y="7.5" width="3.75" height="3.75"/><rect class="cls-3" x="18.75" y="11.25" width="3.75" height="3.75"/><rect class="cls-3" x="15" y="15" width="3.75" height="3.75"/><rect class="cls-3" x="18.75" y="18.75" width="3.75" height="3.75"/><rect class="cls-3" x="15" y="22.5" width="3.75" height="3.75"/><rect class="cls-3" x="18.75" y="26.25" width="3.75" height="3.75"/><rect class="cls-3" x="15" y="30" width="3.75" height="3.75"/><rect class="cls-3" x="18.75" y="33.75" width="3.75" height="3.75"/><rect class="cls-3" x="15" y="37.5" width="3.75" height="3.75"/><rect class="cls-3" x="18.75" y="41.25" width="3.75" height="3.75"/><rect class="cls-3" x="15" y="45" width="3.75" height="3.75"/><rect class="cls-3" x="18.75" y="48.75" width="3.75" height="3.75"/><rect class="cls-3" x="15" y="52.5" width="3.75" height="3.75"/><rect class="cls-3" x="18.75" y="56.25" width="3.75" height="3.75"/><rect class="cls-3" x="15" y="60" width="3.75" height="3.75"/><rect class="cls-3" x="18.75" y="63.75" width="3.75" height="3.75"/><rect class="cls-3" x="15" y="67.5" width="3.75" height="3.75"/><rect class="cls-3" x="18.75" y="71.25" width="3.75" height="3.75"/><rect class="cls-3" x="7.5" width="3.75" height="3.75"/><rect class="cls-3" x="11.25" y="3.75" width="3.75" height="3.75"/><rect class="cls-3" x="7.5" y="7.5" width="3.75" height="3.75"/><rect class="cls-3" x="11.25" y="11.25" width="3.75" height="3.75"/><rect class="cls-3" x="7.5" y="15" width="3.75" height="3.75"/><rect class="cls-3" x="11.25" y="18.75" width="3.75" height="3.75"/><rect class="cls-3" x="7.5" y="22.5" width="3.75" height="3.75"/><rect class="cls-3" x="11.25" y="26.25" width="3.75" height="3.75"/><rect class="cls-3" x="7.5" y="30" width="3.75" height="3.75"/><rect class="cls-3" x="11.25" y="33.75" width="3.75" height="3.75"/><rect class="cls-3" x="7.5" y="37.5" width="3.75" height="3.75"/><rect class="cls-3" x="11.25" y="41.25" width="3.75" height="3.75"/><rect class="cls-3" x="7.5" y="45" width="3.75" height="3.75"/><rect class="cls-3" x="11.25" y="48.75" width="3.75" height="3.75"/><rect class="cls-3" x="7.5" y="52.5" width="3.75" height="3.75"/><rect class="cls-3" x="11.25" y="56.25" width="3.75" height="3.75"/><rect class="cls-3" x="7.5" y="60" width="3.75" height="3.75"/><rect class="cls-3" x="11.25" y="63.75" width="3.75" height="3.75"/><rect class="cls-3" x="7.5" y="67.5" width="3.75" height="3.75"/><rect class="cls-3" x="11.25" y="71.25" width="3.75" height="3.75"/><rect class="cls-3" width="3.75" height="3.75"/><rect class="cls-3" x="3.75" y="3.75" width="3.75" height="3.75"/><rect class="cls-3" y="7.5" width="3.75" height="3.75"/><rect class="cls-3" x="3.75" y="11.25" width="3.75" height="3.75"/><rect class="cls-3" y="15" width="3.75" height="3.75"/><rect class="cls-3" x="3.75" y="18.75" width="3.75" height="3.75"/><rect class="cls-3" y="22.5" width="3.75" height="3.75"/><rect class="cls-3" x="3.75" y="26.25" width="3.75" height="3.75"/><rect class="cls-3" y="30" width="3.75" height="3.75"/><rect class="cls-3" x="3.75" y="33.75" width="3.75" height="3.75"/><rect class="cls-3" y="37.5" width="3.75" height="3.75"/><rect class="cls-3" x="3.75" y="41.25" width="3.75" height="3.75"/><rect class="cls-3" y="45" width="3.75" height="3.75"/><rect class="cls-3" x="3.75" y="48.75" width="3.75" height="3.75"/><rect class="cls-3" y="52.5" width="3.75" height="3.75"/><rect class="cls-3" x="3.75" y="56.25" width="3.75" height="3.75"/><rect class="cls-3" y="60" width="3.75" height="3.75"/><rect class="cls-3" x="3.75" y="63.75" width="3.75" height="3.75"/><rect class="cls-3" y="67.5" width="3.75" height="3.75"/><rect class="cls-3" x="3.75" y="71.25" width="3.75" height="3.75"/></pattern></defs><g id="Layer_1-2"><g class="cls-5"><g class="cls-4"><polygon class="cls-1" points="152.96 78.94 152.75 -2.27 -6.71 -6.27 -6.71 78.94 152.96 78.94"/></g></g></g></svg>