<?xml version="1.0" encoding="UTF-8"?><svg id="Layer_2" xmlns="http://www.w3.org/2000/svg" width="152.96" height="68.56" xmlns:xlink="http://www.w3.org/1999/xlink" viewBox="0 0 152.96 68.56"><defs><clipPath id="clippath"><path d="m32.45,68.55C13.6,69.07,0,52.78,0,33.85,0,14.92,13.6-.41,32.45,0l120.5,12.46v43.63s-120.51,12.46-120.51,12.46Z" style="fill:none; stroke-width:0px;"/></clipPath></defs><g id="Layer_1-2"><g style="clip-path:url(#clippath);"><polygon points="48.55 32.69 52.01 39.65 59.7 40.79 54.14 46.23 55.44 53.9 48.55 50.3 41.66 53.9 42.95 46.23 37.4 40.79 45.09 39.65 48.55 32.69" style="fill:#f4e064; stroke-width:0px;"/><polygon points="25.95 15.38 32.01 18.29 37.86 14.98 36.97 21.64 41.93 26.18 35.31 27.39 32.53 33.51 29.33 27.6 22.65 26.84 27.29 21.97 25.95 15.38" style="fill:#f4e064; stroke-width:0px;"/><polygon points="65.17 54.82 71.27 57.64 77.07 54.24 76.27 60.92 81.3 65.39 74.7 66.69 72 72.85 68.72 66.98 62.03 66.32 66.6 61.39 65.17 54.82" style="fill:#f4e064; stroke-width:0px;"/><polygon points="114.3 25.26 120.4 28.08 126.21 24.69 125.41 31.36 130.43 35.83 123.83 37.14 121.13 43.3 117.86 37.42 111.17 36.76 115.74 31.83 114.3 25.26" style="fill:#f4e064; stroke-width:0px;"/><polygon points="11.87 29.07 15.5 35.49 22.85 36.18 17.86 41.62 19.48 48.82 12.76 45.76 6.42 49.52 7.25 42.19 1.71 37.32 8.94 35.85 11.87 29.07" style="fill:#f4e064; stroke-width:0px;"/><polygon points="97.74 3.01 101.14 9.99 108.81 11.19 103.21 16.58 104.43 24.25 97.59 20.59 90.67 24.12 92.03 16.48 86.54 10.99 94.23 9.93 97.74 3.01" style="fill:#f4e064; stroke-width:0px;"/><polygon points="149.25 9.54 152.86 15.88 160.13 16.53 155.22 21.93 156.85 29.04 150.19 26.04 143.93 29.79 144.73 22.53 139.23 17.73 146.38 16.25 149.25 9.54" style="fill:#f4e064; stroke-width:0px;"/><polygon points="60.97 -.56 64.58 5.88 71.93 6.59 66.92 12.01 68.52 19.22 61.81 16.13 55.45 19.87 56.31 12.55 50.79 7.65 58.03 6.21 60.97 -.56" style="fill:#f4e064; stroke-width:0px;"/><polygon points="100.62 38.83 104.23 45.26 111.58 45.98 106.57 51.4 108.16 58.6 101.46 55.52 95.1 59.26 95.96 51.93 90.44 47.04 97.67 45.59 100.62 38.83" style="fill:#f4e064; stroke-width:0px;"/><polygon points="75.17 -14.18 81.24 -11.24 87.12 -14.54 86.2 -7.86 91.15 -3.29 84.51 -2.1 81.7 4.03 78.52 -1.92 71.82 -2.71 76.49 -7.57 75.17 -14.18" style="fill:#f4e064; stroke-width:0px;"/><polygon points="-.7 62.14 2.68 68.98 10.22 70.11 4.76 75.44 6.01 82.96 -.74 79.41 -7.51 82.93 -6.22 75.41 -11.66 70.06 -4.11 68.96 -.7 62.14" style="fill:#f4e064; stroke-width:0px;"/><polygon points="-10.11 10.82 -6.89 19.6 2.16 21.98 -5.2 27.76 -4.66 37.1 -12.43 31.88 -21.15 35.28 -18.59 26.28 -24.52 19.04 -15.17 18.69 -10.11 10.82" style="fill:#f4e064; stroke-width:0px;"/><polygon points="37.28 -17.81 41.2 -9.36 50.38 -7.75 43.56 -1.41 44.87 7.82 36.73 3.29 28.36 7.39 30.15 -1.76 23.66 -8.45 32.91 -9.57 37.28 -17.81" style="fill:#f4e064; stroke-width:0px;"/><polygon points="9.22 -6.73 12.75 .31 20.54 1.43 14.94 6.96 16.29 14.72 9.29 11.1 2.33 14.78 3.61 7.01 -2.04 1.53 5.75 .34 9.22 -6.73" style="fill:#f4e064; stroke-width:0px;"/><polygon points="137 42.52 140.53 49.55 148.33 50.67 142.73 56.21 144.07 63.96 137.08 60.35 130.12 64.02 131.39 56.25 125.75 50.77 133.53 49.58 137 42.52" style="fill:#f4e064; stroke-width:0px;"/><polygon points="28.03 50.89 31.9 59.57 41.24 61.36 34.18 67.72 35.37 77.16 27.13 72.41 18.53 76.45 20.5 67.15 13.99 60.22 23.45 59.22 28.03 50.89" style="fill:#f4e064; stroke-width:0px;"/><polygon points="77.03 21.51 80.9 30.2 90.24 31.98 83.18 38.35 84.37 47.78 76.13 43.03 67.53 47.08 69.5 37.78 62.99 30.84 72.45 29.85 77.03 21.51" style="fill:#f4e064; stroke-width:0px;"/><polygon points="126.16 -8.39 130.03 .3 139.37 2.08 132.31 8.45 133.5 17.88 125.26 13.13 116.66 17.18 118.63 7.88 112.12 .94 121.58 -.05 126.16 -8.39" style="fill:#f4e064; stroke-width:0px;"/><polygon points="116.41 60.9 120.29 69.58 129.63 71.37 122.56 77.73 123.75 87.17 115.52 82.42 106.91 86.46 108.88 77.16 102.37 70.23 111.83 69.23 116.41 60.9" style="fill:#f4e064; stroke-width:0px;"/></g></g></svg>