<?xml version="1.0" encoding="UTF-8"?><svg id="Layer_2" xmlns="http://www.w3.org/2000/svg" width="102.96" height="205" viewBox="0 0 102.96 205"><g id="Layer_1-2"><path d="m101.26,37.39c-2.14-3.28-6.03-5.09-10.02-4.28L8.6,49.99c-5.31,1.09-8.78,6.44-7.73,11.96,1.05,5.52,6.2,9.12,11.52,8.03l82.65-16.89c5.31-1.09,8.78-6.44,7.73-11.96-.26-1.38-.78-2.65-1.5-3.75Z" style="fill:#c4c4c4; stroke-width:0px;"/><path d="m91.92,4.47c-2.14-3.28-6.03-5.09-10.02-4.28L8.6,15.79C3.28,16.87-.18,22.23.87,27.75c1.05,5.52,6.2,9.12,11.52,8.03l73.31-15.6c5.31-1.09,8.78-6.44,7.73-11.96-.26-1.38-.78-2.65-1.5-3.75Z" style="fill:#c4c4c4; stroke-width:0px;"/><line x1="10.63" y1="25.62" x2="93.14" y2="43.22" style="fill:#fff; stroke-width:0px;"/><path d="m101.22,49.01c-2.17,3.26-6.07,5.04-10.05,4.19L8.65,35.6C3.35,34.47-.07,29.08,1.02,23.57c1.09-5.51,6.27-9.06,11.58-7.93l82.51,17.6c5.31,1.13,8.72,6.52,7.63,12.03-.27,1.38-.8,2.64-1.53,3.73Z" style="fill:#d3d3d3; stroke-width:0px;"/><path d="m85.23,45.18c-1.9,2.85-5.27,4.44-8.69,3.74l-53.18-11.8c-4.56-.93-7.45-5.57-6.46-10.36.99-4.79,5.48-7.92,10.04-6.99l53.18,11.8c4.56.93,7.45,5.57,6.46,10.36-.25,1.2-.72,2.3-1.35,3.26Z" style="fill:#e8e8e8; opacity:.8; stroke-width:0px;"/><path d="m93.27,39.76c-.61.92-1.72,1.42-2.84,1.18L12.09,24.17c-1.5-.32-2.46-1.84-2.16-3.4.31-1.56,1.77-2.56,3.27-2.24l78.34,16.78c1.5.32,2.46,1.84,2.16,3.4-.08.39-.23.75-.43,1.05Z" style="fill:#fff; opacity:.47; stroke-width:0px;"/><path d="m101.27,71.65c-2.14-3.28-6.03-5.09-10.02-4.28L8.61,84.25c-5.31,1.09-8.78,6.44-7.73,11.96,1.05,5.52,6.2,9.12,11.52,8.03l82.65-16.89c5.31-1.09,8.78-6.44,7.73-11.96-.26-1.38-.78-2.65-1.5-3.75Z" style="fill:#c4c4c4; stroke-width:0px;"/><line x1="10.43" y1="59.86" x2="92.94" y2="77.46" style="fill:#fff; stroke-width:0px;"/><path d="m101.02,83.25c-2.17,3.26-6.07,5.04-10.05,4.19L8.46,69.84c-5.31-1.13-8.72-6.52-7.63-12.03,1.09-5.51,6.27-9.06,11.58-7.93l82.51,17.6c5.31,1.13,8.72,6.52,7.63,12.03-.27,1.38-.8,2.64-1.53,3.73Z" style="fill:#d3d3d3; stroke-width:0px;"/><path d="m85.04,79.42c-1.9,2.85-5.27,4.44-8.69,3.74l-53.18-11.8c-4.56-.93-7.45-5.57-6.46-10.36.99-4.79,5.48-7.92,10.04-6.99l53.18,11.8c4.56.93,7.45,5.57,6.46,10.36-.25,1.2-.72,2.3-1.35,3.26Z" style="fill:#e8e8e8; opacity:.8; stroke-width:0px;"/><path d="m93.07,74c-.61.92-1.72,1.42-2.84,1.18L11.89,58.41c-1.5-.32-2.46-1.84-2.16-3.4.31-1.56,1.77-2.56,3.27-2.24l78.34,16.78c1.5.32,2.46,1.84,2.16,3.4-.08.39-.23.75-.43,1.05Z" style="fill:#fff; opacity:.47; stroke-width:0px;"/><path d="m101.12,105.98c-2.14-3.28-6.03-5.09-10.02-4.28L8.45,118.58c-5.31,1.09-8.78,6.44-7.73,11.96,1.05,5.52,6.2,9.12,11.52,8.03l82.65-16.89c5.31-1.09,8.78-6.44,7.73-11.96-.26-1.38-.78-2.65-1.5-3.75Z" style="fill:#c4c4c4; stroke-width:0px;"/><line x1="10.48" y1="94.21" x2="92.99" y2="111.81" style="fill:#fff; stroke-width:0px;"/><path d="m101.07,117.6c-2.17,3.26-6.07,5.04-10.05,4.19L8.51,104.19c-5.31-1.13-8.72-6.52-7.63-12.03,1.09-5.51,6.27-9.06,11.58-7.93l82.51,17.6c5.31,1.13,8.72,6.52,7.63,12.03-.27,1.38-.8,2.64-1.53,3.73Z" style="fill:#d3d3d3; stroke-width:0px;"/><path d="m85.09,113.77c-1.9,2.85-5.27,4.44-8.69,3.74l-53.18-11.8c-4.56-.93-7.45-5.57-6.46-10.36.99-4.79,5.48-7.92,10.04-6.99l53.18,11.8c4.56.93,7.45,5.57,6.46,10.36-.25,1.2-.72,2.3-1.35,3.26Z" style="fill:#e8e8e8; opacity:.8; stroke-width:0px;"/><path d="m93.12,108.35c-.61.92-1.72,1.42-2.84,1.18L11.94,92.76c-1.5-.32-2.46-1.84-2.16-3.4.31-1.56,1.77-2.56,3.27-2.24l78.34,16.78c1.5.32,2.46,1.84,2.16,3.4-.08.39-.23.75-.43,1.05Z" style="fill:#fff; opacity:.47; stroke-width:0px;"/><path d="m100.58,139.98c-2.14-3.28-6.03-5.09-10.02-4.28L7.92,152.59c-5.31,1.09-8.78,6.44-7.73,11.96,1.05,5.52,6.2,9.12,11.52,8.03l82.65-16.89c5.31-1.09,8.78-6.44,7.73-11.96-.26-1.38-.78-2.65-1.5-3.75Z" style="fill:#c4c4c4; stroke-width:0px;"/><path d="m99.75,174.41c-2.14-3.28-6.03-5.09-10.02-4.28l-72.76,14.69c-5.31,1.09-8.78,6.44-7.73,11.96,1.05,5.52,6.2,9.12,11.52,8.03l72.76-14.69c5.31-1.09,8.78-6.44,7.73-11.96-.26-1.38-.78-2.65-1.5-3.75Z" style="fill:#c4c4c4; stroke-width:0px;"/><line x1="9.92" y1="128.37" x2="92.43" y2="145.97" style="fill:#fff; stroke-width:0px;"/><path d="m100.51,151.76c-2.17,3.26-6.07,5.04-10.05,4.19L7.94,138.35c-5.31-1.13-8.72-6.52-7.63-12.03,1.09-5.51,6.27-9.06,11.58-7.93l82.51,17.6c5.31,1.13,8.72,6.52,7.63,12.03-.27,1.38-.8,2.64-1.53,3.73Z" style="fill:#d3d3d3; stroke-width:0px;"/><path d="m84.52,147.93c-1.9,2.85-5.27,4.44-8.69,3.74l-53.18-11.8c-4.56-.93-7.45-5.57-6.46-10.36.99-4.79,5.48-7.92,10.04-6.99l53.18,11.8c4.56.93,7.45,5.57,6.46,10.36-.25,1.2-.72,2.3-1.35,3.26Z" style="fill:#e8e8e8; opacity:.8; stroke-width:0px;"/><path d="m84.52,181.73c-1.9,2.85-5.27,4.44-8.69,3.74l-53.18-11.8c-4.56-.93-7.45-5.57-6.46-10.36.99-4.79,5.48-7.92,10.04-6.99l53.18,11.8c4.56.93,7.45,5.57,6.46,10.36-.25,1.2-.72,2.3-1.35,3.26Z" style="fill:#bcbcbc; opacity:.8; stroke-width:0px;"/><path d="m92.56,142.51c-.61.92-1.72,1.42-2.84,1.18L11.38,126.92c-1.5-.32-2.46-1.84-2.16-3.4.31-1.56,1.77-2.56,3.27-2.24l78.34,16.78c1.5.32,2.46,1.84,2.16,3.4-.08.39-.23.75-.43,1.05Z" style="fill:#fff; opacity:.47; stroke-width:0px;"/><line x1="9.81" y1="162.58" x2="92.32" y2="180.19" style="fill:#fff; stroke-width:0px;"/><path d="m100.4,185.97c-2.17,3.26-6.07,5.04-10.05,4.19L7.84,172.56c-5.31-1.13-8.72-6.52-7.63-12.03,1.09-5.51,6.27-9.06,11.58-7.93l82.51,17.6c5.31,1.13,8.72,6.52,7.63,12.03-.27,1.38-.8,2.64-1.53,3.73Z" style="fill:#d3d3d3; stroke-width:0px;"/><path d="m84.52,182.55c-1.9,2.85-5.27,4.44-8.69,3.74l-53.18-11.8c-4.56-.93-7.45-5.57-6.46-10.36.99-4.79,5.48-7.92,10.04-6.99l53.18,11.8c4.56.93,7.45,5.57,6.46,10.36-.25,1.2-.72,2.3-1.35,3.26Z" style="fill:#e8e8e8; opacity:.8; stroke-width:0px;"/><path d="m92.45,176.72c-.61.92-1.72,1.42-2.84,1.18l-78.34-16.78c-1.5-.32-2.46-1.84-2.16-3.4.31-1.56,1.77-2.56,3.27-2.24l78.34,16.78c1.5.32,2.46,1.84,2.16,3.4-.08.39-.23.75-.43,1.05Z" style="fill:#fff; opacity:.47; stroke-width:0px;"/></g></svg>